<svg width="118" height="20" viewBox="0 0 118 20" fill="none" xmlns="http://www.w3.org/2000/svg">
<path fill-rule="evenodd" clip-rule="evenodd" d="M31.3029 0C30.2768 0 29.4702 0.767655 29.4702 1.79919C29.4702 2.8085 30.2768 3.55392 31.3029 3.55392C32.3075 3.55392 33.1147 2.8085 33.1147 1.79919C33.1147 0.767655 32.3075 0 31.3029 0ZM24.4262 12.2655C23.7278 13.1209 22.8984 13.5819 22.1342 13.5819C20.7153 13.5819 19.8859 12.6826 19.8859 11.0145V5.50693H16.8525V11.3C16.8525 14.3502 18.6858 16.3471 21.4358 16.3471C22.6144 16.3471 23.5747 15.9516 24.4262 15.2717V16.0171H27.4602V5.50693H24.4262V12.2655ZM32.8305 16.0172H29.7971V5.50699H32.8305V16.0172ZM41.4092 13.5379C40.2964 13.5379 39.5764 12.9897 39.5764 11.8043V8.07425H43.352V5.50682H39.5764V1.75455H36.5639V5.50682H34.3598V8.07425H36.5639V11.8265C36.5639 14.5472 38.2227 16.347 40.755 16.347C41.7363 16.347 42.3043 16.2587 43.5702 15.8643L43.1774 13.253C42.5878 13.4063 41.9772 13.5379 41.4092 13.5379ZM60.8503 10.5102H56.4637V7.70107H64.2557V16.0171H61.8334L61.6588 13.9552C60.6111 15.4244 58.996 16.3249 56.7256 16.3249C52.1853 16.3249 48.9557 12.8798 48.9557 8.75426C48.9557 4.03715 52.4263 0.789831 56.8135 0.789831C60.0867 0.789831 63.2296 2.61067 64.0811 6.31906H60.7194C59.9779 4.23433 58.1876 3.79551 56.8566 3.79551C54.106 3.79551 52.1422 5.68246 52.1422 8.73261C52.1422 11.19 53.9098 13.297 56.7471 13.297C58.8209 13.297 60.2177 12.1777 60.8503 10.5102ZM69.0378 9.7422C69.3218 8.6229 70.1081 7.78913 71.4829 7.78913C72.7709 7.78913 73.5566 8.5129 73.7533 9.7422H69.0378ZM71.5702 5.28781C68.2306 5.28781 66.0044 7.61301 66.0044 10.7737C66.0044 13.9111 68.2521 16.2591 71.6138 16.2591C74.0798 16.2591 76.0447 14.9643 76.6122 12.9456H73.4472C73.1201 13.4722 72.5305 13.7355 71.679 13.7355C70.1954 13.7355 69.3655 12.9456 69.0605 11.8925H76.6779C76.7425 11.4536 76.7425 10.9932 76.7425 10.5537C76.7425 7.41583 74.5169 5.28781 71.5702 5.28781ZM81.3054 6.25335C82.1569 5.57287 83.1178 5.17793 84.2964 5.17793C87.047 5.17793 88.8797 7.17489 88.8797 10.2467V16.017H85.8457V10.51C85.8457 8.84243 85.0163 7.94313 83.598 7.94313C82.8338 7.94313 82.0044 8.4036 81.3054 9.25961V16.017H78.2719V5.50676H81.3054V6.25335ZM92.5702 0C91.5441 0 90.7374 0.767655 90.7374 1.79919C90.7374 2.8085 91.5441 3.55392 92.5702 3.55392C93.5742 3.55392 94.3808 2.8085 94.3808 1.79919C94.3808 0.767655 93.5742 0 92.5702 0ZM94.0974 16.0172H91.064V5.50699H94.0974V16.0172ZM103.811 12.2655C103.112 13.1209 102.284 13.5819 101.519 13.5819C100.101 13.5819 99.2711 12.6826 99.2711 11.0145V5.50693H96.2371V11.3C96.2371 14.3502 98.071 16.3471 100.82 16.3471C102 16.3471 102.96 15.9516 103.811 15.2717V16.0171H106.845V5.50693H103.811V12.2655ZM112.936 9.39102L114.836 9.69762C116.538 10.0054 118 10.8169 118 12.7922C118 15.1613 115.948 16.3467 113.286 16.3467C110.863 16.3467 108.571 15.3597 108.353 12.3745L111.125 12.3973C111.299 13.5154 112.107 13.9548 113.308 13.9548C114.355 13.9548 115.075 13.6038 115.075 13.0549C115.075 12.6383 114.726 12.3095 114.028 12.1773L111.802 11.8046C110.208 11.519 108.724 10.6414 108.724 8.6889C108.724 6.51641 110.557 5.22158 113.242 5.22158C115.032 5.22158 117.717 5.83594 117.934 8.79832L115.163 8.82055C115.097 7.87678 114.245 7.50348 113.242 7.50348C112.194 7.50348 111.693 7.92125 111.693 8.40337C111.693 8.79832 111.976 9.21549 112.936 9.39102ZM7.82343 13.1243C5.32776 13.1243 3.29769 11.0834 3.29769 8.57451C3.29769 6.06559 5.32776 4.02358 7.82343 4.02358C10.3191 4.02358 12.3498 6.06559 12.3498 8.57451C12.3498 11.0834 10.3191 13.1243 7.82343 13.1243ZM15.6475 8.57451C15.6475 4.23773 12.1373 0.708385 7.82343 0.708385C3.50955 0.708385 0 4.23773 0 8.57451C0 12.9113 3.50955 16.4395 7.82343 16.4395C12.1373 16.4395 15.6475 12.9113 15.6475 8.57451ZM14.8958 20H11.2803V16.3653H14.8958V20Z" fill="#47455A"/>
</svg>
